<?xml version="1.0" encoding="UTF-8" standalone="no"?>
<svg
   xmlns:dc="http://purl.org/dc/elements/1.1/"
   xmlns:cc="http://creativecommons.org/ns#"
   xmlns:rdf="http://www.w3.org/1999/02/22-rdf-syntax-ns#"
   xmlns:svg="http://www.w3.org/2000/svg"
   xmlns="http://www.w3.org/2000/svg"
   id="svg4701"
   version="1.1"
   viewBox="0 0 210 297"
   height="297mm"
   width="210mm">
  <defs
     id="defs4695" />
  <metadata
     id="metadata4698">
    <rdf:RDF>
      <cc:Work
         rdf:about="">
        <dc:format>image/svg+xml</dc:format>
        <dc:type
           rdf:resource="http://purl.org/dc/dcmitype/StillImage" />
        <dc:title></dc:title>
      </cc:Work>
    </rdf:RDF>
  </metadata>
  <g
     id="layer1">
    <path
       id="path5246"
       d="m 23.8125,271.67559 c 0,0 1.511905,5.48066 4.91369,4.15774 3.401785,-1.32291 4.913691,-0.75596 3.96875,-5.29166 -0.94494,-4.53573 -5.858631,-3.02382 -5.858631,-3.02382"
       style="fill:none;stroke:#000000;stroke-width:0.26458332px;stroke-linecap:butt;stroke-linejoin:miter;stroke-opacity:1" />
    <path
       id="path5248"
       d="m 37.230655,260.33631 c 0,0 -1.511905,7.55952 13.040178,9.07143 14.552083,1.51191 30.238093,0 40.254464,-3.02381 10.016373,-3.02381 17.575893,-12.8512 18.331843,-16.81995 0.75595,-3.96875 0.37798,-20.97767 0.37798,-20.97767"
       style="fill:none;stroke:#000000;stroke-width:0.26458332px;stroke-linecap:butt;stroke-linejoin:miter;stroke-opacity:1" />
    <path
       id="path5250"
       d="m 37.797618,207.60863 c 0,0 7.181548,9.63839 30.049107,-4.15774 22.867559,-13.79613 44.790175,-68.03571 44.790175,-68.03571"
       style="fill:none;stroke:#000000;stroke-width:0.26458332px;stroke-linecap:butt;stroke-linejoin:miter;stroke-opacity:1" />
  </g>
</svg>
