<?xml version="1.0" encoding="UTF-8" standalone="no"?>
<svg
   xmlns:dc="http://purl.org/dc/elements/1.1/"
   xmlns:cc="http://creativecommons.org/ns#"
   xmlns:rdf="http://www.w3.org/1999/02/22-rdf-syntax-ns#"
   xmlns:svg="http://www.w3.org/2000/svg"
   xmlns="http://www.w3.org/2000/svg"
   id="svg8"
   version="1.1"
   viewBox="0 0 210 297"
   height="297mm"
   width="210mm">
  <defs
     id="defs2" />
  <metadata
     id="metadata5">
    <rdf:RDF>
      <cc:Work
         rdf:about="">
        <dc:format>image/svg+xml</dc:format>
        <dc:type
           rdf:resource="http://purl.org/dc/dcmitype/StillImage" />
        <dc:title></dc:title>
      </cc:Work>
    </rdf:RDF>
  </metadata>
  <g
     id="layer1">
    <path
       style="fill:none;stroke:#000000;stroke-width:0.26499999;stroke-miterlimit:4;stroke-dasharray:0.79499996,0.79499996;stroke-dashoffset:0;stroke-opacity:1"
       d="M 123.97604,46.401597 A 26.458332,25.324405 0 0 0 97.51771,71.726149 26.458332,25.324405 0 0 0 123.97604,97.050702 26.458332,25.324405 0 0 0 150.43438,71.726149 26.458332,25.324405 0 0 0 123.97604,46.401597 Z"
       id="path818" />
    <path
       style="fill:none;stroke:#000000;stroke-width:0.26499999;stroke-miterlimit:4;stroke-dasharray:0,0.26499999,0.52999997,0.79499996,1.05999995,1.32499993,1.58999992,1.85499991,2.1199999,2.38499988,2.64999987,2.91499986,3.17999985,3.44499983,3.70999982;stroke-dashoffset:0;stroke-opacity:1"
       d="M 108.10104,66.434336 A 26.458332,25.324405 0 0 0 81.64271,91.758887 26.458332,25.324405 0 0 0 108.10104,117.08344 26.458332,25.324405 0 0 0 134.55938,91.758887 26.458332,25.324405 0 0 0 108.10104,66.434336 Z"
       id="path820" />
  </g>
</svg>
