<?xml version="1.0" encoding="UTF-8" standalone="no"?>
<svg
   xmlns:dc="http://purl.org/dc/elements/1.1/"
   xmlns:cc="http://creativecommons.org/ns#"
   xmlns:rdf="http://www.w3.org/1999/02/22-rdf-syntax-ns#"
   xmlns:svg="http://www.w3.org/2000/svg"
   xmlns="http://www.w3.org/2000/svg"
   id="svg8"
   version="1.1"
   viewBox="0 0 210 297"
   height="297mm"
   width="210mm">
  <defs
     id="defs2" />
  <metadata
     id="metadata5">
    <rdf:RDF>
      <cc:Work
         rdf:about="">
        <dc:format>image/svg+xml</dc:format>
        <dc:type
           rdf:resource="http://purl.org/dc/dcmitype/StillImage" />
        <dc:title></dc:title>
      </cc:Work>
    </rdf:RDF>
  </metadata>
  <g
     id="layer1">
    <g
       id="text914"
       style="font-style:normal;font-variant:normal;font-weight:bold;font-stretch:normal;font-size:10.58333302px;line-height:1.25;font-family:'.Beirut PUA';-inkscape-font-specification:'.Beirut PUA, Bold';font-variant-ligatures:normal;font-variant-caps:normal;font-variant-numeric:normal;font-feature-settings:normal;text-align:start;letter-spacing:0px;word-spacing:0px;writing-mode:lr-tb;text-anchor:start;fill:#000000;fill-opacity:1;stroke:none;stroke-width:0.26458332"
       aria-label="Shot is really quite a lovely person">
      <path
         id="path936"
         transform="scale(0.26458333)"
         d="M 226.19336 974.97266 L 222.07617 980.625 L 246.63867 998.52148 L 250.75586 992.86914 L 226.19336 974.97266 z M 219.81055 983.57422 L 215.14844 988.78516 L 237.79883 1009.0469 L 242.46094 1003.8359 L 219.81055 983.57422 z M 219.83398 998.70508 C 217.70099 998.63381 215.1738 999.51695 212.25195 1001.3555 C 210.97356 1002.1599 209.74664 1003.0479 208.57227 1004.0176 C 207.42854 1004.9458 206.33927 1005.9454 205.29688 1007.0117 C 203.43179 1005.919 201.2022 1005.432 198.60742 1005.5586 C 195.97212 1005.6873 193.76413 1006.3055 191.96484 1007.3926 L 192.3125 1006.2852 C 191.83565 1006.0658 191.46963 1005.9094 191.21289 1005.8145 C 190.96008 1005.7071 190.72147 1005.6177 190.49805 1005.5469 C 188.94646 1005.0554 187.51107 1004.9494 186.19336 1005.2285 C 184.89199 1005.4991 183.59767 1006.1813 182.30859 1007.2754 L 183.39258 1003.8496 L 176.72852 1001.7383 L 170.12109 1022.5918 L 176.78711 1024.7031 L 179.83008 1015.0957 C 180.47898 1013.0476 181.43655 1011.6236 182.70117 1010.8223 C 183.98214 1010.0125 185.47845 1009.8791 187.19141 1010.4219 C 187.62895 1010.5605 188.04494 1010.7477 188.45117 1010.9609 C 187.39761 1012.806 186.92587 1015.0227 187.05273 1017.6211 C 187.2299 1021.2496 188.46082 1024.0186 190.74414 1025.9277 C 193.03984 1027.8232 196.16552 1028.6754 200.11914 1028.4824 C 201.77082 1028.4018 203.41303 1028.1577 205.04883 1027.752 C 206.68527 1027.3592 208.31435 1026.8104 209.93555 1026.1055 L 209.67383 1020.7207 C 208.09134 1021.6845 206.53581 1022.4256 205.00977 1022.9434 C 203.49609 1023.4474 202.00476 1023.7348 200.53516 1023.8066 C 198.71441 1023.8956 197.27708 1023.555 196.22266 1022.7852 C 195.16822 1022.0153 194.51665 1020.816 194.26758 1019.1855 L 210.40625 1018.3984 C 210.614 1019.1187 210.9444 1019.8513 211.41406 1020.5977 C 212.53746 1022.383 214.04776 1023.4627 215.94531 1023.8379 C 217.84695 1024.1951 219.75624 1023.7711 221.67383 1022.5645 C 223.09549 1021.6699 224.14354 1020.6565 224.81641 1019.5254 C 225.48235 1018.3833 225.85721 1017.0003 225.94336 1015.377 L 227.66992 1018.1211 L 233.63867 1014.3672 L 226.99219 1003.8027 C 225.12679 1000.8382 223.0376 999.16825 220.72461 998.79297 C 220.436 998.74381 220.1387 998.71526 219.83398 998.70508 z M 217.52344 1004.4531 C 218.53227 1004.4183 219.33244 1004.8699 219.92188 1005.8066 L 220.21289 1006.2695 L 216.72461 1008.4629 C 213.52863 1010.4739 211.49949 1012.459 210.63867 1014.416 C 210.53747 1014.6482 210.45454 1014.8818 210.38477 1015.1172 C 210.1541 1013.3342 209.61636 1011.7806 208.79102 1010.4414 C 209.25265 1009.7886 209.76981 1009.1632 210.35547 1008.5723 C 211.28701 1007.6323 212.38497 1006.7643 213.65234 1005.9668 C 215.21727 1004.981 216.50767 1004.4758 217.52344 1004.4531 z M 222.42773 1009.791 L 222.85547 1010.4688 C 223.61133 1011.67 223.86162 1012.9104 223.60742 1014.1934 C 223.34629 1015.4653 222.65996 1016.4519 221.54688 1017.1523 C 220.65421 1017.714 219.82124 1017.9455 219.05078 1017.8457 C 218.28441 1017.728 217.66686 1017.2943 217.19531 1016.5449 C 216.68215 1015.7294 216.60144 1014.9185 216.95508 1014.1113 C 217.31974 1013.2973 218.11921 1012.5013 219.35352 1011.7246 L 222.42773 1009.791 z M 198.79492 1010.2031 C 200.04344 1010.1422 201.07159 1010.5033 201.87891 1011.2852 C 202.69859 1012.0534 203.14225 1013.1012 203.20703 1014.4277 L 194.13477 1014.8711 C 194.273 1013.4304 194.74617 1012.3112 195.55469 1011.5156 C 196.36257 1010.707 197.44237 1010.2691 198.79492 1010.2031 z "
         style="font-style:normal;font-variant:normal;font-weight:bold;font-stretch:normal;font-size:10.58333302px;font-family:'.Beirut PUA';-inkscape-font-specification:'.Beirut PUA, Bold';font-variant-ligatures:normal;font-variant-caps:normal;font-variant-numeric:normal;font-feature-settings:normal;text-align:start;writing-mode:lr-tb;text-anchor:start;stroke-width:0.99999994" />
    </g>
  </g>
</svg>
