<?xml version="1.0" encoding="UTF-8" standalone="no"?>
<!-- Created with Inkscape (http://www.inkscape.org/) -->

<svg
   xmlns:dc="http://purl.org/dc/elements/1.1/"
   xmlns:cc="http://creativecommons.org/ns#"
   xmlns:rdf="http://www.w3.org/1999/02/22-rdf-syntax-ns#"
   xmlns:svg="http://www.w3.org/2000/svg"
   xmlns="http://www.w3.org/2000/svg"
   xmlns:sodipodi="http://sodipodi.sourceforge.net/DTD/sodipodi-0.dtd"
   xmlns:inkscape="http://www.inkscape.org/namespaces/inkscape"
   width="210mm"
   height="297mm"
   viewBox="0 0 210 297"
   version="1.1"
   id="svg8"
   inkscape:version="0.92.2 5c3e80d, 2017-08-06"
   sodipodi:docname="tim.svg">
  <defs
     id="defs2" />
  <sodipodi:namedview
     id="base"
     pagecolor="#ffffff"
     bordercolor="#666666"
     borderopacity="1.0"
     inkscape:pageopacity="0.0"
     inkscape:pageshadow="2"
     inkscape:zoom="1"
     inkscape:cx="98.786797"
     inkscape:cy="1038.4279"
     inkscape:document-units="mm"
     inkscape:current-layer="layer1"
     showgrid="false"
     inkscape:window-width="1396"
     inkscape:window-height="855"
     inkscape:window-x="0"
     inkscape:window-y="1"
     inkscape:window-maximized="1" />
  <metadata
     id="metadata5">
    <rdf:RDF>
      <cc:Work
         rdf:about="">
        <dc:format>image/svg+xml</dc:format>
        <dc:type
           rdf:resource="http://purl.org/dc/dcmitype/StillImage" />
        <dc:title></dc:title>
      </cc:Work>
    </rdf:RDF>
  </metadata>
  <g
     inkscape:label="Layer 1"
     inkscape:groupmode="layer"
     id="layer1">
    <g
       aria-label="TIM"
       style="font-style:normal;font-weight:normal;font-size:10.58333302px;line-height:1.25;font-family:sans-serif;letter-spacing:0px;word-spacing:0px;fill:#000000;fill-opacity:1;stroke:none;stroke-width:0.26458332"
       id="text860">
      <path
         style="font-style:normal;font-variant:normal;font-weight:bold;font-stretch:normal;font-size:19.75555611px;font-family:'American Typewriter';-inkscape-font-specification:'American Typewriter, Bold';font-variant-ligatures:normal;font-variant-caps:normal;font-variant-numeric:normal;font-feature-settings:normal;text-align:start;letter-spacing:-1.21179092px;writing-mode:lr-tb;text-anchor:start;stroke-width:0.99999994"
         d="m 54.207031,36.560547 c -2.190223,0 -3.285156,1.094933 -3.285156,3.285156 0,0.746666 0.04888,1.743837 0.148437,2.988281 0.149342,1.841777 0.22461,3.060869 0.22461,3.658204 0,1.09511 -0.07527,2.28976 -0.22461,3.583984 -0.199105,1.692445 -0.296875,2.862655 -0.296874,3.509766 -10e-7,1.891555 0.496632,3.409798 1.492187,4.554687 0.995555,1.095111 2.365198,1.642578 4.107422,1.642578 3.733334,0 5.599609,-2.216263 5.599609,-6.646484 0,-0.497779 -0.09972,-1.244679 -0.298828,-2.240235 -0.149342,-1.045334 -0.224609,-1.816676 -0.224609,-2.314453 0,-1.692444 1.221045,-2.539062 3.660156,-2.539062 2.439111,0 3.658203,1.668795 3.658203,5.003906 v 21.503906 c 0,3.086224 -0.846618,4.628907 -2.539062,4.628907 -0.547556,0 -1.369734,-0.07527 -2.464844,-0.22461 C 62.718338,76.755973 61.922555,76.65625 61.375,76.65625 c -3.036445,0 -4.554687,1.644353 -4.554688,4.929688 10e-7,3.633776 1.866276,5.449218 5.59961,5.449218 1.493334,0 3.211012,-0.09972 5.152344,-0.298828 2.936889,-0.298666 5.501182,-0.447266 7.691406,-0.447266 2.140445,0 4.702787,0.1486 7.689453,0.447266 1.991111,0.199106 3.708788,0.298828 5.152344,0.298828 3.733334,0 5.599609,-1.965993 5.599609,-5.898437 0,-2.986666 -1.49185,-4.480469 -4.478516,-4.480469 -0.547555,0 -1.36973,0.09972 -2.464843,0.298828 -1.045332,0.149342 -1.841114,0.22461 -2.388672,0.22461 -1.692442,0 -2.539063,-1.542683 -2.539063,-4.628907 V 51.046875 c 0,-1.841776 0.299153,-3.136144 0.896485,-3.882813 0.597334,-0.746665 1.616991,-1.121093 3.060547,-1.121093 2.190223,0 3.285156,0.897453 3.285156,2.689453 0,0.497776 -0.07331,1.244676 -0.222656,2.240234 -0.149342,0.995556 -0.22461,1.79134 -0.22461,2.388672 0,4.28089 1.866275,6.421875 5.59961,6.421875 1.692444,0 3.035694,-0.547467 4.03125,-1.642578 1.045334,-1.095111 1.568359,-2.588913 1.568359,-4.480469 0,-0.298668 -0.09972,-1.493318 -0.298828,-3.583984 -0.149342,-1.59289 -0.222656,-2.78754 -0.222656,-3.583984 0,-0.159998 0.01105,-0.3998 0.01563,-0.591797 0.720029,0.679316 1.557049,1.039062 2.527349,1.039062 0.448,0 1.04434,-0.07331 1.79101,-0.222656 0.79645,-0.199106 1.39475,-0.298828 1.79297,-0.298828 0.99554,0 1.6183,0.647185 1.86719,1.941406 0.0995,0.448 0.14843,1.467657 0.14843,3.060547 v 20.683594 c 0,1.592889 -0.0489,2.636989 -0.14843,3.134765 -0.2489,1.294224 -0.87164,1.941407 -1.86719,1.941407 -0.39822,0 -0.99652,-0.07527 -1.79297,-0.22461 -0.74667,-0.199105 -1.31857,-0.298828 -1.71679,-0.298828 -1.19468,0 -2.18989,0.474145 -2.986335,1.419922 -0.746666,0.896 -1.119141,2.066208 -1.119141,3.509766 0,1.642665 0.496633,2.961492 1.492188,3.957031 0.995558,0.995555 2.289928,1.492187 3.882818,1.492187 0.896,0 2.8131,-0.1486 5.75,-0.447265 2.43911,-0.248895 4.77758,-0.373047 7.01758,-0.373047 1.44355,0 2.76236,0.07527 3.95703,0.224609 l 4.70507,0.595703 c 0.14934,0.04979 0.3732,0.07617 0.67188,0.07617 3.13173,-0.727624 5.82105,-0.35117 8.53516,0 l 4.62889,-0.597656 c 1.14489,-0.149342 2.56537,-0.224609 4.25782,-0.22461 1.344,0 2.53865,0.05084 3.58399,0.150391 0.34844,0.04979 1.2195,0.173941 2.61327,0.373047 1.09511,0.149342 1.99061,0.222656 2.6875,0.222656 1.49334,0 2.68799,-0.496632 3.58399,-1.492187 0.896,-0.995556 1.34375,-2.340759 1.34375,-4.033203 0,-3.036445 -0.99522,-4.554688 -2.98633,-4.554688 -0.29866,0 -0.52252,0.02638 -0.67187,0.07617 h -0.44922 c -0.19912,0.04976 -0.34772,0.07422 -0.44727,0.07422 -0.39821,0 -0.67292,-0.07527 -0.82227,-0.22461 -0.448,-0.298665 -0.67187,-1.617476 -0.67187,-3.957031 V 44.775391 l 9.93164,37.257812 c 0.74667,2.837334 2.11631,4.255859 4.10742,4.255859 h 4.77735 c 2.04088,0 3.51024,-1.593517 4.40624,-4.779296 l 10.37891,-36.734375 v 28.148437 c 0,1.194666 -0.0264,2.041284 -0.0762,2.539063 -0.14933,1.09511 -0.62152,1.642578 -1.41797,1.642578 -0.0498,0 -0.17394,-0.02446 -0.37305,-0.07422 h -0.52343 c -0.14934,-0.04979 -0.37321,-0.07617 -0.67188,-0.07617 -2.04089,0 -3.06055,1.544636 -3.06055,4.63086 0,1.642665 0.44775,2.961475 1.34375,3.957031 0.94579,0.995555 2.16487,1.492187 3.65821,1.492187 0.94577,0 2.33986,-0.124152 4.18164,-0.373047 1.84177,-0.248894 3.23586,-0.373047 4.18164,-0.373047 1.49333,0 2.98714,0.09972 4.48047,0.298829 2.24,0.298665 3.83156,0.447265 4.77734,0.447265 1.64267,0 2.96148,-0.472192 3.95703,-1.417968 0.99556,-0.995558 1.49414,-2.338808 1.49414,-4.03125 0,-1.393779 -0.39886,-2.563987 -1.19531,-3.509766 -0.79644,-0.945777 -1.76722,-1.419922 -2.91211,-1.419922 -0.39822,0 -0.99457,0.09972 -1.79101,0.298828 -0.79645,0.149342 -1.39475,0.22461 -1.79297,0.22461 -1.29422,0 -1.94141,-1.693236 -1.94141,-5.078126 v -20.68164 c 0,-3.335111 0.67358,-5.001953 2.01758,-5.001953 0.34844,0 0.92035,0.09972 1.7168,0.298828 0.79644,0.149342 1.41918,0.222656 1.86718,0.222656 1.14489,0 2.08927,-0.472192 2.83594,-1.417969 0.79645,-0.945779 1.19531,-2.115989 1.19531,-3.509765 0,-1.692445 -0.49858,-3.011253 -1.49414,-3.957031 -0.99555,-0.995555 -2.31436,-1.494141 -3.95703,-1.494141 -0.64711,0 -1.64233,0.05083 -2.98633,0.150391 -4.72889,0.398222 -7.6901,0.597656 -8.88476,0.597656 -1.14489,0 -2.83813,-0.126111 -5.07813,-0.375 -2.24,-0.24889 -3.90684,-0.373047 -5.00195,-0.373047 -1.24445,0 -2.21522,0.423308 -2.91211,1.269531 -0.64711,0.796445 -1.24541,2.290248 -1.79297,4.480469 l -6.49609,26.132812 -6.19727,-27.251953 c -0.448,-1.891555 -0.92019,-3.13704 -1.41797,-3.734375 -0.49777,-0.597333 -1.36883,-0.896484 -2.61328,-0.896484 -0.94578,0 -2.24014,0.09972 -3.88281,0.298828 -2.43911,0.298667 -4.77758,0.449219 -7.01758,0.449219 -1.39378,0 -3.48588,-0.126111 -6.27344,-0.375 -2.78755,-0.24889 -4.77799,-0.373047 -5.97265,-0.373047 -4.19277,0.641661 -4.99939,0.396558 -9.0586,0 -0.84622,0 -2.58834,0.124157 -5.22656,0.373047 -2.58844,0.248889 -4.57888,0.375 -5.97265,0.375 -1.74223,0 -3.53518,-0.09972 -5.37696,-0.298828 -2.73778,-0.298667 -4.47989,-0.449219 -5.22656,-0.449219 -1.61712,0 -2.91822,0.486341 -3.908199,1.451172 -0.501132,-0.960177 -1.483666,-1.451172 -2.966797,-1.451172 -1.09511,0 -2.513638,0.07527 -4.255859,0.224609 -3.982224,0.348445 -9.581052,0.523438 -16.798828,0.523438 -7.168,0 -12.744339,-0.174993 -16.726563,-0.523438 -1.742221,-0.149334 -3.185188,-0.224609 -4.330078,-0.224609 z m 78.353519,10.378906 c 0.448,0 1.0463,-0.07331 1.79297,-0.222656 0.79644,-0.199106 1.39279,-0.298828 1.79101,-0.298828 0.99555,0 1.61829,0.647185 1.86719,1.941406 0.0995,0.448 0.15039,1.467657 0.15039,3.060547 v 20.683594 c 0,1.592889 -0.0508,2.636989 -0.15039,3.134765 -0.24889,1.294224 -0.87163,1.941407 -1.86719,1.941407 -0.39822,-10e-7 -0.99457,-0.07527 -1.79101,-0.22461 -0.74667,-0.199105 -1.31858,-0.298828 -1.7168,-0.298828 -1.99738,0.265981 -4.10905,0.169826 -6.22266,0 -0.39822,0 -0.99457,0.09972 -1.79101,0.298828 -0.79645,0.149342 -1.39475,0.22461 -1.79297,0.22461 -1.344,-10e-7 -2.01563,-1.691283 -2.01563,-5.076172 V 51.419922 c 0,-3.335111 0.67163,-5.001953 2.01563,-5.001953 0.39822,0 0.99652,0.09972 1.79297,0.298828 0.79644,0.149342 1.39279,0.222656 1.79101,0.222656 2.39302,-0.475863 2.4238,-0.677668 6.14649,0 z"
         transform="scale(0.26458333)"
         id="path862"
         inkscape:connector-curvature="0"
         sodipodi:nodetypes="cscscccsscssssscssscscssscssscsscsscscscscscsscscscscscscccccsccssssccscsccssccscsccsscssscscscscsssscscscscssscccccscsscccscscscscsccscssccccccsssscccc" />
    </g>
  </g>
</svg>
