<svg xmlns="http://www.w3.org/2000/svg" width="48" height="48" viewBox="0 0 48 48">
   <path d="M 2.5507812,2.5507812 0,5.0898438 15.042969,20.132812 7.0195312,28.140625 C 6.6995313,28.040625 6.36,28 6,28 c -2.1999999,0 -4,1.8 -4,4 0,2.2 1.8000001,4 4,4 2.2,0 4,-1.8 4,-4 0,-0.36 -0.040625,-0.699531 -0.140625,-1.019531 L 17.867188,22.957031 42.910156,48 45.449219,45.449219 31.636719,31.636719 16.363281,16.363281 Z M 42,12 c -2.2,0 -4,1.8 -4,4 0,0.36 0.04062,0.699531 0.140625,1.019531 l -8.307324,8.326855 2.884053,2.758526 8.263115,-8.245537 C 41.300469,19.959375 41.64,20 42,20 c 2.2,0 4,-1.8 4,-4 0,-2.2 -1.8,-4 -4,-4 z"/>
</svg>
