<?xml version="1.0" encoding="UTF-8" standalone="no"?>
<!-- Created with Inkscape (http://www.inkscape.org/) -->

<svg
   xmlns:dc="http://purl.org/dc/elements/1.1/"
   xmlns:cc="http://creativecommons.org/ns#"
   xmlns:rdf="http://www.w3.org/1999/02/22-rdf-syntax-ns#"
   xmlns:svg="http://www.w3.org/2000/svg"
   xmlns="http://www.w3.org/2000/svg"
   xmlns:sodipodi="http://sodipodi.sourceforge.net/DTD/sodipodi-0.dtd"
   xmlns:inkscape="http://www.inkscape.org/namespaces/inkscape"
   width="210mm"
   height="297mm"
   id="svg2"
   version="1.1"
   inkscape:version="0.92.2 5c3e80d, 2017-08-06"
   sodipodi:docname="Elvis.svg"
   viewBox="0 0 210 297">
  <defs
     id="defs4" />
  <sodipodi:namedview
     id="base"
     pagecolor="#ffffff"
     bordercolor="#666666"
     borderopacity="1.0"
     inkscape:pageopacity="0.0"
     inkscape:pageshadow="2"
     inkscape:zoom="0.3375"
     inkscape:cx="311.00093"
     inkscape:cy="287.47806"
     inkscape:document-units="mm"
     inkscape:current-layer="layer1"
     showgrid="false"
     inkscape:window-width="1394"
     inkscape:window-height="855"
     inkscape:window-x="0"
     inkscape:window-y="1"
     inkscape:window-maximized="1"
     fit-margin-top="0"
     fit-margin-left="0"
     fit-margin-right="0"
     fit-margin-bottom="0"
     inkscape:object-nodes="true"
     inkscape:snap-global="false"
     units="mm" />
  <metadata
     id="metadata7">
    <rdf:RDF>
      <cc:Work
         rdf:about="">
        <dc:format>image/svg+xml</dc:format>
        <dc:type
           rdf:resource="http://purl.org/dc/dcmitype/StillImage" />
        <dc:title></dc:title>
      </cc:Work>
    </rdf:RDF>
  </metadata>
  <g
     inkscape:label="Layer 1"
     inkscape:groupmode="layer"
     id="layer1"
     transform="translate(0,513.51969)">
    <path
       id="path2996"
       style="fill:#000000;stroke-width:0.42690304"
       d="m 99.78088,-397.68753 c 0.4269,-1.28071 -2.134515,-1.28071 -2.988321,-1.70761 0.426903,-1.28071 4.269031,-1.70762 5.122831,-4.26903 0,0 -13.233989,6.40354 -15.368504,-1.70762 3.842127,-1.70761 12.380188,-2.56141 17.076124,-4.69593 6.40354,-1.70761 13.23399,1.70761 19.63754,1.70761 2.13451,0.42691 2.56142,2.98832 4.69593,2.98832 2.56142,-1.70761 4.26903,0.42691 5.54974,2.13452 -1.28071,1.28071 -2.98832,3.41522 -2.56142,5.54974 0.4269,2.13451 -1.70761,2.13451 -2.98832,2.56142 -3.84213,3.84212 -7.68425,2.13451 -11.95328,-1.70761 0,5.12283 -8.53807,5.54973 -8.96497,0.8538 -3.41522,0.85381 -1.28071,4.69593 -4.69593,4.69593 -1.28071,-1.70761 -4.695935,-2.98832 -2.56142,-6.40354 z m 31.59082,66.16997 c -2.56141,-0.4269 -6.83044,-0.85381 -8.11115,-3.41523 4.26903,0 11.95328,0.85381 14.5147,-1.70761 2.56142,-2.13451 1.70761,-5.12283 -0.85381,-5.12283 -0.4269,0 -1.2807,0.4269 -2.13451,-0.42691 -1.28071,-0.4269 -10.24567,-0.4269 -14.5147,0 -3.84213,0.42691 -8.96497,0 -7.25736,-0.4269 4.69594,-1.70761 14.51471,-2.56142 18.78374,-4.69593 5.54974,2.56142 8.53806,2.13451 9.39186,-1.28071 0,-2.56142 -1.2807,-5.12284 -2.13451,-4.69594 -2.56142,1.28071 -3.84213,-0.8538 -5.54974,-2.13451 -3.84213,-2.13452 -7.25735,-0.85381 -11.52638,-2.98832 -2.13452,-2.13452 0,-8.96497 1.70761,-9.39187 0.85381,3.84213 1.70761,7.25735 5.97664,5.97664 3.41523,-0.4269 9.81877,3.41523 12.80709,3.84213 1.70762,0 2.56142,-1.28071 3.41523,-2.13451 2.56142,-1.70762 2.98832,-2.56142 2.13451,-4.69594 -1.28071,-5.54974 -4.69593,-20.49134 -3.41522,-29.88321 2.13451,-1.70761 4.69593,-4.69593 6.40354,-5.97664 2.56142,-1.70761 8.96497,-4.69594 8.96497,-4.69594 3.84212,-0.8538 4.26903,-5.54973 4.26903,-5.54973 2.56142,4.69593 3.41522,10.67257 3.41522,10.67257 -1.70761,2.56142 -6.40354,4.26903 -6.40354,7.25735 0,0.85381 0.8538,0.85381 1.28071,1.70761 -2.13452,2.98833 -5.54974,3.41523 -8.11116,3.41523 0.8538,-0.4269 1.70761,-0.85381 2.56142,-1.70761 0,-1.70762 -1.70762,-2.56142 -1.70762,-2.56142 -0.8538,3.41522 -4.69593,3.84213 -6.83044,0 0,0 -2.56142,2.56142 0.8538,3.84213 -6.40354,-0.85381 -1.70761,17.50302 0,23.05276 0.4269,3.41522 1.28071,3.84213 -2.56142,6.83045 -1.70761,1.28071 -2.98832,3.41522 -2.98832,3.41522 2.13452,5.54974 1.70761,10.67258 1.70761,10.67258 -1.2807,2.13451 -2.98832,2.98832 -2.98832,5.12283 -1.70761,7.25736 -7.25735,7.68426 -11.09948,7.68426 z m 17.07613,-11.52638 c 0,0 -0.85381,2.13451 -1.70762,4.69593 -1.28071,2.98832 -2.98832,5.97664 -5.54974,9.39187 -0.4269,1.70761 -2.56141,8.96496 -2.98832,9.81877 0,2.98832 -1.70761,5.12283 -4.26903,5.97664 -18.78373,5.97664 -35.432949,-7.25735 -44.397913,-28.6025 -3.415224,-6.83045 -5.549739,-13.234 -7.684254,-20.91825 -0.426903,-8.53806 -0.426903,-17.07612 -4.695934,-24.76038 -2.561418,-7.25735 -2.561418,-17.07612 3.842128,-22.19896 3.415224,-6.83044 10.672575,-11.52638 12.80709,-18.35683 -0.853806,-7.25735 3.415225,-16.22231 11.953283,-13.66089 7.25735,-2.13452 14.94161,-5.12284 22.19896,-2.56142 5.97664,2.98832 12.80709,3.41522 19.21064,4.26903 7.68425,-2.13452 13.23399,2.98832 13.23399,10.24567 0.85381,3.84213 1.70761,16.64922 5.97664,14.0878 2.56142,-6.83045 0.42691,-14.9416 0.42691,-22.19896 8.53806,-15.79541 3.41522,-27.32179 -1.70762,-41.83649 -18.78373,-19.63754 -92.637954,-23.05277 -89.649633,-1.28071 -32.017728,4.26903 -49.520752,34.57914 -32.871534,78.12325 0,2.13452 1.280709,8.11116 1.280709,8.11116 0,0 1.280709,0 2.134515,-2.98832 -1.280709,-2.13452 2.561419,-8.96496 2.561419,-8.96496 l 1.707612,5.12283 c -0.853806,5.12284 1.280709,14.5147 5.976642,15.79541 0,-2.13451 2.988321,-8.53806 2.134515,-2.98832 2.134515,5.97664 -0.426903,19.21064 -8.53806,11.95329 -2.134515,-3.41523 -5.122837,-7.25735 -5.122837,-7.25735 -5.976642,2.56141 -11.526381,13.66089 -10.245672,19.21063 2.988321,1.70761 7.684254,-3.84213 8.53806,2.13452 5.54974,5.54974 3.415225,14.0878 7.684255,20.49134 0.853806,5.12284 4.26903,12.80709 7.684254,14.51471 0.426903,-5.97665 -0.426903,-12.38019 -3.415224,-17.07612 15.795413,13.23399 18.356831,33.72533 18.356831,33.72533 -0.426903,2.98833 -3.415224,5.12284 -0.853806,8.11116 8.538061,23.47967 18.35683,45.67862 23.479667,67.02378 2.561418,-36.71366 -3.415225,-58.48572 -3.415225,-58.48572 8.111162,-7.68425 15.368512,-16.22231 15.368512,-16.22231 0,0 15.36851,2.13451 26.04108,-1.28071 1.70762,-0.4269 4.69594,-2.56142 5.54974,-6.83045 1.28071,-5.54974 5.97664,-11.95328 8.53806,-19.21064 1.28071,-3.84212 2.98832,-7.25735 4.26903,-11.09948 3.84213,-11.09947 5.97665,-20.49134 5.97665,-20.49134 -3.41523,7.68425 -6.83045,17.50302 -9.81877,26.46799 z"
       inkscape:connector-curvature="0" />
  </g>
</svg>
