<?xml version="1.0" encoding="UTF-8" standalone="no"?>
<svg
   xmlns:dc="http://purl.org/dc/elements/1.1/"
   xmlns:cc="http://creativecommons.org/ns#"
   xmlns:rdf="http://www.w3.org/1999/02/22-rdf-syntax-ns#"
   xmlns:svg="http://www.w3.org/2000/svg"
   xmlns="http://www.w3.org/2000/svg"
   id="svg8"
   version="1.1"
   viewBox="0 0 210 297"
   height="297mm"
   width="210mm">
  <defs
     id="defs2" />
  <metadata
     id="metadata5">
    <rdf:RDF>
      <cc:Work
         rdf:about="">
        <dc:format>image/svg+xml</dc:format>
        <dc:type
           rdf:resource="http://purl.org/dc/dcmitype/StillImage" />
        <dc:title></dc:title>
      </cc:Work>
    </rdf:RDF>
  </metadata>
  <g
     id="layer1">
    <g
       id="text914"
       style="font-style:normal;font-variant:normal;font-weight:bold;font-stretch:normal;font-size:10.58333302px;line-height:1.25;font-family:'.Beirut PUA';-inkscape-font-specification:'.Beirut PUA, Bold';font-variant-ligatures:normal;font-variant-caps:normal;font-variant-numeric:normal;font-feature-settings:normal;text-align:start;letter-spacing:0px;word-spacing:0px;writing-mode:lr-tb;text-anchor:start;fill:#000000;fill-opacity:1;stroke:none;stroke-width:0.26458332"
       aria-label="Shot is really quite a lovely person">
      <path
         id="path924"
         style="font-style:normal;font-variant:normal;font-weight:bold;font-stretch:normal;font-size:10.58333302px;font-family:'.Beirut PUA';-inkscape-font-specification:'.Beirut PUA, Bold';font-variant-ligatures:normal;font-variant-caps:normal;font-variant-numeric:normal;font-feature-settings:normal;text-align:start;writing-mode:lr-tb;text-anchor:start;stroke-width:0.26458332"
         d="m 23.550073,239.30047 -1.37795,0.87628 q -0.10125,-0.68887 -0.303597,-1.27671 -0.202347,-0.58783 -0.490742,-1.04134 -0.382678,-0.60176 -0.7314,-0.78418 -0.348723,-0.18243 -0.697571,0.0394 -0.261636,0.16638 -0.287884,0.45253 -0.01911,0.28774 0.200676,0.86448 l 0.310877,0.80665 q 0.472453,1.22444 0.31884,1.96516 -0.153614,0.74071 -0.973407,1.26204 -1.077069,0.68494 -2.012337,0.37946 -0.928134,-0.30388 -1.762815,-1.61642 -0.39377,-0.61921 -0.672577,-1.31765 -0.278806,-0.69843 -0.444237,-1.46897 l 1.417196,-0.90124 q 0.06514,0.83432 0.263886,1.52243 0.205882,0.6897 0.549738,1.23041 0.349401,0.54944 0.718339,0.72513 0.368938,0.17569 0.709065,-0.0406 0.305243,-0.19412 0.343386,-0.50008 0.04092,-0.3016 -0.205397,-0.97783 l -0.269281,-0.74124 q -0.411849,-1.10988 -0.24238,-1.85455 0.172241,-0.74031 0.948428,-1.23391 0.972415,-0.61839 1.895003,-0.32322 0.922588,0.29516 1.671305,1.47252 0.341083,0.53636 0.618725,1.15592 0.282003,0.61679 0.506111,1.32552 z" />
      <path
         id="path926"
         style="font-style:normal;font-variant:normal;font-weight:bold;font-stretch:normal;font-size:10.58333302px;font-family:'.Beirut PUA';-inkscape-font-specification:'.Beirut PUA, Bold';font-variant-ligatures:normal;font-variant-caps:normal;font-variant-numeric:normal;font-feature-settings:normal;text-align:start;writing-mode:lr-tb;text-anchor:start;stroke-width:0.26458332"
         d="m 24.726607,247.77753 -2.85918,2.06059 -1.087698,-1.50925 0.46535,-0.33537 1.71467,-1.23575 q 0.616274,-0.44414 0.825704,-0.63966 0.212451,-0.19133 0.273109,-0.33697 0.08328,-0.19378 0.05417,-0.40211 -0.02492,-0.21136 -0.163907,-0.4042 -0.338395,-0.46955 -0.896498,-0.475 -0.55391,-0.008 -1.195339,0.4538 l -2.309983,1.66479 -1.081656,-1.50086 6.523291,-4.70128 1.081656,1.50086 -2.515408,1.81283 q 0.655582,0.0435 1.123376,0.28601 0.471987,0.2395 0.804339,0.70065 0.586149,0.81332 0.389398,1.5921 -0.193729,0.78297 -1.145392,1.46882 z" />
      <path
         id="path928"
         style="font-style:normal;font-variant:normal;font-weight:bold;font-stretch:normal;font-size:10.58333302px;font-family:'.Beirut PUA';-inkscape-font-specification:'.Beirut PUA, Bold';font-variant-ligatures:normal;font-variant-caps:normal;font-variant-numeric:normal;font-feature-settings:normal;text-align:start;writing-mode:lr-tb;text-anchor:start;stroke-width:0.26458332"
         d="m 28.226334,250.43521 q -0.38889,-0.47637 -0.939039,-0.44751 -0.542879,0.0296 -1.187379,0.55573 -0.6445,0.52614 -0.786152,1.05538 -0.134381,0.52997 0.254509,1.00634 0.382353,0.46837 0.925232,0.43878 0.546882,-0.0328 1.191381,-0.559 0.6445,-0.52614 0.782149,-1.05211 0.141653,-0.52924 -0.240701,-0.99761 z m 1.024795,-0.8366 q 0.944446,1.1569 0.849374,2.31521 -0.0918,1.16231 -1.19666,2.06427 -1.104857,0.90196 -2.262022,0.75926 -1.153897,-0.1387 -2.098343,-1.29559 -0.947714,-1.1609 -0.859179,-2.32722 0.0918,-1.16231 1.196661,-2.06427 1.104857,-0.90196 2.262022,-0.75926 1.160433,0.1467 2.108147,1.3076 z" />
      <path
         id="path930"
         style="font-style:normal;font-variant:normal;font-weight:bold;font-stretch:normal;font-size:10.58333302px;font-family:'.Beirut PUA';-inkscape-font-specification:'.Beirut PUA, Bold';font-variant-ligatures:normal;font-variant-caps:normal;font-variant-numeric:normal;font-feature-settings:normal;text-align:start;writing-mode:lr-tb;text-anchor:start;stroke-width:0.26458332"
         d="m 34.408064,253.24172 -1.207073,1.1151 1.293934,1.40066 -0.971732,0.89769 -1.293934,-1.40066 -1.803019,1.66563 q -0.296075,0.27352 -0.293654,0.48937 0.0062,0.21235 0.328824,0.56157 l 0.645214,0.69843 -0.971732,0.89769 -1.076525,-1.16532 q -0.743399,-0.80472 -0.721453,-1.45113 0.02925,-0.64612 0.833964,-1.38952 l 1.803019,-1.66563 -0.624174,-0.67566 0.971732,-0.89768 0.624174,0.67565 1.207074,-1.11509 z" />
      <path
         id="path932"
         style="font-style:normal;font-variant:normal;font-weight:bold;font-stretch:normal;font-size:10.58333302px;font-family:'.Beirut PUA';-inkscape-font-specification:'.Beirut PUA, Bold';font-variant-ligatures:normal;font-variant-caps:normal;font-variant-numeric:normal;font-feature-settings:normal;text-align:start;writing-mode:lr-tb;text-anchor:start;stroke-width:0.26458332"
         d="m 37.52712,258.64336 1.39602,1.21395 -3.797852,4.36744 -1.396019,-1.21396 z m 1.47845,-1.70018 1.396019,1.21395 -0.990154,1.13866 -1.396019,-1.21396 z" />
      <path
         id="path934"
         style="font-style:normal;font-variant:normal;font-weight:bold;font-stretch:normal;font-size:10.58333302px;font-family:'.Beirut PUA';-inkscape-font-specification:'.Beirut PUA, Bold';font-variant-ligatures:normal;font-variant-caps:normal;font-variant-numeric:normal;font-feature-settings:normal;text-align:start;writing-mode:lr-tb;text-anchor:start;stroke-width:0.26458332"
         d="m 43.411038,263.4427 -0.813356,1.14637 q -0.341144,-0.54619 -0.720338,-0.9673 -0.379195,-0.42111 -0.779581,-0.70518 -0.429888,-0.30501 -0.718365,-0.34495 -0.281271,-0.0412 -0.439756,0.18222 -0.128582,0.18123 -0.04142,0.3888 0.09138,0.21057 0.4673,0.54698 l 0.238607,0.22632 q 1.054352,0.96984 1.215516,1.59109 0.161163,0.62124 -0.350174,1.34193 -0.53526,0.75442 -1.360711,0.73901 -0.825451,-0.0154 -1.929674,-0.79886 -0.467819,-0.33192 -0.91553,-0.76362 -0.446487,-0.4245 -0.868651,-0.9458 l 0.813356,-1.14637 q 0.295467,0.53912 0.689753,0.98361 0.398502,0.44748 0.887394,0.79435 0.442532,0.31398 0.752623,0.35025 0.310092,0.0363 0.480538,-0.20397 0.143533,-0.2023 0.05637,-0.40988 -0.07996,-0.2088 -0.500476,-0.58953 l -0.241596,-0.2221 q -0.917579,-0.84112 -1.079967,-1.46957 -0.162388,-0.62845 0.331008,-1.32385 0.53227,-0.7502 1.303614,-0.74784 0.771344,0.002 1.83342,0.75591 0.417245,0.29604 0.831781,0.6852 0.414536,0.38915 0.858314,0.90678 z" />
      <path
         id="path936"
         transform="scale(0.26458333)"
         d="M 226.19336 974.97266 L 222.07617 980.625 L 246.63867 998.52148 L 250.75586 992.86914 L 226.19336 974.97266 z M 219.81055 983.57422 L 215.14844 988.78516 L 237.79883 1009.0469 L 242.46094 1003.8359 L 219.81055 983.57422 z M 219.83398 998.70508 C 217.70099 998.63381 215.1738 999.51695 212.25195 1001.3555 C 210.97356 1002.1599 209.74664 1003.0479 208.57227 1004.0176 C 207.42854 1004.9458 206.33927 1005.9454 205.29688 1007.0117 C 203.43179 1005.919 201.2022 1005.432 198.60742 1005.5586 C 195.97212 1005.6873 193.76413 1006.3055 191.96484 1007.3926 L 192.3125 1006.2852 C 191.83565 1006.0658 191.46963 1005.9094 191.21289 1005.8145 C 190.96008 1005.7071 190.72147 1005.6177 190.49805 1005.5469 C 188.94646 1005.0554 187.51107 1004.9494 186.19336 1005.2285 C 184.89199 1005.4991 183.59767 1006.1813 182.30859 1007.2754 L 183.39258 1003.8496 L 176.72852 1001.7383 L 170.12109 1022.5918 L 176.78711 1024.7031 L 179.83008 1015.0957 C 180.47898 1013.0476 181.43655 1011.6236 182.70117 1010.8223 C 183.98214 1010.0125 185.47845 1009.8791 187.19141 1010.4219 C 187.62895 1010.5605 188.04494 1010.7477 188.45117 1010.9609 C 187.39761 1012.806 186.92587 1015.0227 187.05273 1017.6211 C 187.2299 1021.2496 188.46082 1024.0186 190.74414 1025.9277 C 193.03984 1027.8232 196.16552 1028.6754 200.11914 1028.4824 C 201.77082 1028.4018 203.41303 1028.1577 205.04883 1027.752 C 206.68527 1027.3592 208.31435 1026.8104 209.93555 1026.1055 L 209.67383 1020.7207 C 208.09134 1021.6845 206.53581 1022.4256 205.00977 1022.9434 C 203.49609 1023.4474 202.00476 1023.7348 200.53516 1023.8066 C 198.71441 1023.8956 197.27708 1023.555 196.22266 1022.7852 C 195.16822 1022.0153 194.51665 1020.816 194.26758 1019.1855 L 210.40625 1018.3984 C 210.614 1019.1187 210.9444 1019.8513 211.41406 1020.5977 C 212.53746 1022.383 214.04776 1023.4627 215.94531 1023.8379 C 217.84695 1024.1951 219.75624 1023.7711 221.67383 1022.5645 C 223.09549 1021.6699 224.14354 1020.6565 224.81641 1019.5254 C 225.48235 1018.3833 225.85721 1017.0003 225.94336 1015.377 L 227.66992 1018.1211 L 233.63867 1014.3672 L 226.99219 1003.8027 C 225.12679 1000.8382 223.0376 999.16825 220.72461 998.79297 C 220.436 998.74381 220.1387 998.71526 219.83398 998.70508 z M 217.52344 1004.4531 C 218.53227 1004.4183 219.33244 1004.8699 219.92188 1005.8066 L 220.21289 1006.2695 L 216.72461 1008.4629 C 213.52863 1010.4739 211.49949 1012.459 210.63867 1014.416 C 210.53747 1014.6482 210.45454 1014.8818 210.38477 1015.1172 C 210.1541 1013.3342 209.61636 1011.7806 208.79102 1010.4414 C 209.25265 1009.7886 209.76981 1009.1632 210.35547 1008.5723 C 211.28701 1007.6323 212.38497 1006.7643 213.65234 1005.9668 C 215.21727 1004.981 216.50767 1004.4758 217.52344 1004.4531 z M 222.42773 1009.791 L 222.85547 1010.4688 C 223.61133 1011.67 223.86162 1012.9104 223.60742 1014.1934 C 223.34629 1015.4653 222.65996 1016.4519 221.54688 1017.1523 C 220.65421 1017.714 219.82124 1017.9455 219.05078 1017.8457 C 218.28441 1017.728 217.66686 1017.2943 217.19531 1016.5449 C 216.68215 1015.7294 216.60144 1014.9185 216.95508 1014.1113 C 217.31974 1013.2973 218.11921 1012.5013 219.35352 1011.7246 L 222.42773 1009.791 z M 198.79492 1010.2031 C 200.04344 1010.1422 201.07159 1010.5033 201.87891 1011.2852 C 202.69859 1012.0534 203.14225 1013.1012 203.20703 1014.4277 L 194.13477 1014.8711 C 194.273 1013.4304 194.74617 1012.3112 195.55469 1011.5156 C 196.36257 1010.707 197.44237 1010.2691 198.79492 1010.2031 z "
         style="font-style:normal;font-variant:normal;font-weight:bold;font-stretch:normal;font-size:10.58333302px;font-family:'.Beirut PUA';-inkscape-font-specification:'.Beirut PUA, Bold';font-variant-ligatures:normal;font-variant-caps:normal;font-variant-numeric:normal;font-feature-settings:normal;text-align:start;writing-mode:lr-tb;text-anchor:start;stroke-width:0.99999994" />
      <path
         id="path946"
         style="font-style:normal;font-variant:normal;font-weight:bold;font-stretch:normal;font-size:10.58333302px;font-family:'.Beirut PUA';-inkscape-font-specification:'.Beirut PUA, Bold';font-variant-ligatures:normal;font-variant-caps:normal;font-variant-numeric:normal;font-feature-settings:normal;text-align:start;writing-mode:lr-tb;text-anchor:start;stroke-width:0.26458332"
         d="m 62.060013,258.76434 0.990245,-1.56268 4.150006,0.78832 -2.609318,-3.21965 0.990245,-1.56268 4.048723,5.4471 q 0.619872,0.82717 0.68011,1.44654 0.06737,0.61776 -0.361368,1.29434 l -0.572572,0.90357 -1.025783,-0.65002 0.309798,-0.48889 q 0.25171,-0.39722 0.238532,-0.6564 -0.01041,-0.26354 -0.274171,-0.57139 l -0.107655,-0.1294 z" />
      <path
         id="path948"
         style="font-style:normal;font-variant:normal;font-weight:bold;font-stretch:normal;font-size:10.58333302px;font-family:'.Beirut PUA';-inkscape-font-specification:'.Beirut PUA, Bold';font-variant-ligatures:normal;font-variant-caps:normal;font-variant-numeric:normal;font-feature-settings:normal;text-align:start;writing-mode:lr-tb;text-anchor:start;stroke-width:0.26458332"
         d="m 70.693163,247.36468 q -0.335591,0.48418 -0.158397,0.99053 0.180138,0.50211 0.85969,0.97312 0.679552,0.471 1.212943,0.46345 0.536335,-0.0118 0.871926,-0.49598 0.338535,-0.48843 0.158397,-0.99054 -0.177194,-0.50636 -0.856746,-0.97736 -0.679552,-0.47101 -1.215887,-0.45921 -0.533392,0.008 -0.871926,0.49599 z m 3.773951,1.1319 q 0.202633,0.60572 0.136008,1.11914 -0.06663,0.51341 -0.411048,1.01034 -0.609362,0.87917 -1.697425,0.96126 -1.092311,0.0792 -2.192335,-0.68328 -1.100025,-0.76244 -1.400796,-1.80715 -0.305018,-1.04766 0.304345,-1.92683 0.344422,-0.49692 0.801789,-0.73951 0.457368,-0.24259 1.09568,-0.26545 l -0.705035,-0.48866 1.059761,-1.52899 6.566169,4.55108 -1.05976,1.52899 z" />
      <path
         id="path950"
         style="font-style:normal;font-variant:normal;font-weight:bold;font-stretch:normal;font-size:10.58333302px;font-family:'.Beirut PUA';-inkscape-font-specification:'.Beirut PUA, Bold';font-variant-ligatures:normal;font-variant-caps:normal;font-variant-numeric:normal;font-feature-settings:normal;text-align:start;writing-mode:lr-tb;text-anchor:start;stroke-width:0.26458332"
         d="m 75.589857,244.48693 -2.571098,-2.42555 1.276609,-1.35321 0.420999,0.39716 q 0.342061,0.3227 0.857245,0.81583 0.511425,0.48958 0.684336,0.6527 0.507453,0.47873 0.757811,0.66518 0.246599,0.18291 0.408374,0.21476 0.209577,0.0414 0.405111,-0.0228 0.199081,-0.0679 0.362203,-0.24085 0.397167,-0.421 0.300853,-0.96654 -0.09631,-0.54554 -0.671428,-1.0881 l -2.07868,-1.96101 1.269518,-1.34569 4.209985,3.97167 -1.269518,1.34569 -0.608944,-0.57447 q 0.08114,0.65199 -0.06489,1.16072 -0.146242,0.50143 -0.532771,0.91115 -0.687951,0.72923 -1.496968,0.69065 -0.805471,-0.0423 -1.658744,-0.84732 z" />
      <path
         id="path952"
         style="font-style:normal;font-variant:normal;font-weight:bold;font-stretch:normal;font-size:10.58333302px;font-family:'.Beirut PUA';-inkscape-font-specification:'.Beirut PUA, Bold';font-variant-ligatures:normal;font-variant-caps:normal;font-variant-numeric:normal;font-feature-settings:normal;text-align:start;writing-mode:lr-tb;text-anchor:start;stroke-width:0.26458332"
         d="m 79.191634,236.06125 1.483871,-1.10485 3.456506,4.64228 -1.483871,1.10484 z m -1.345568,-1.80718 1.48387,-1.10484 0.901161,1.21031 -1.483871,1.10484 z" />
      <path
         id="path954"
         style="font-style:normal;font-variant:normal;font-weight:bold;font-stretch:normal;font-size:10.58333302px;font-family:'.Beirut PUA';-inkscape-font-specification:'.Beirut PUA, Bold';font-variant-ligatures:normal;font-variant-caps:normal;font-variant-numeric:normal;font-feature-settings:normal;text-align:start;writing-mode:lr-tb;text-anchor:start;stroke-width:0.26458332"
         d="m 84.053855,231.05331 0.744187,1.46515 1.700123,-0.86354 0.599095,1.17949 -1.700123,0.86354 1.111601,2.1885 q 0.182537,0.35938 0.390891,0.41584 0.206015,0.0519 0.629894,-0.16345 l 0.847757,-0.4306 0.599095,1.17949 -1.414465,0.71845 q -0.976765,0.49612 -1.59276,0.29895 -0.613728,-0.20412 -1.109854,-1.18088 l -1.111601,-2.18851 -0.820113,0.41656 -0.599095,-1.17949 0.820114,-0.41656 -0.744188,-1.46514 z" />
      <path
         id="path956"
         style="font-style:normal;font-variant:normal;font-weight:bold;font-stretch:normal;font-size:10.58333302px;font-family:'.Beirut PUA';-inkscape-font-specification:'.Beirut PUA, Bold';font-variant-ligatures:normal;font-variant-caps:normal;font-variant-numeric:normal;font-feature-settings:normal;text-align:start;writing-mode:lr-tb;text-anchor:start;stroke-width:0.26458332"
         d="m 95.184239,232.26778 0.116812,0.51399 -4.217766,0.95855 q 0.209807,0.62005 0.675009,0.84818 0.465203,0.22814 1.170683,0.0678 0.569424,-0.12941 1.126251,-0.43084 0.560721,-0.30761 1.112739,-0.79342 l 0.316082,1.3908 q -0.585001,0.38732 -1.197488,0.65371 -0.611341,0.27142 -1.251313,0.41686 -1.5319,0.34815 -2.55988,-0.23434 -1.024086,-0.58867 -1.343603,-1.99459 -0.313791,-1.38073 0.337868,-2.36083 0.656699,-0.98126 2.118052,-1.31337 1.330334,-0.30234 2.30861,0.31794 0.983315,0.61913 1.287944,1.95955 z m -1.990688,-0.17822 q -0.116813,-0.51399 -0.490165,-0.75771 -0.369459,-0.24989 -0.853217,-0.13995 -0.524071,0.1191 -0.784048,0.49085 -0.261121,0.36671 -0.215773,0.93934 z" />
      <path
         id="path958"
         style="font-style:normal;font-variant:normal;font-weight:bold;font-stretch:normal;font-size:10.58333302px;font-family:'.Beirut PUA';-inkscape-font-specification:'.Beirut PUA, Bold';font-variant-ligatures:normal;font-variant-caps:normal;font-variant-numeric:normal;font-feature-settings:normal;text-align:start;writing-mode:lr-tb;text-anchor:start;stroke-width:0.26458332"
         d="m 103.8222,232.79968 q -0.57471,-0.0685 -0.89044,0.0917 -0.31059,0.16075 -0.35584,0.54047 -0.0416,0.34893 0.16548,0.57657 0.21281,0.22312 0.62845,0.27265 0.51826,0.0618 0.91635,-0.26551 0.3987,-0.33239 0.46535,-0.89171 l 0.0251,-0.21038 z m 2.88939,-0.35825 -0.39074,3.27892 -1.85241,-0.22074 0.1015,-0.8518 q -0.43182,0.47937 -0.92238,0.66551 -0.48995,0.18101 -1.15189,0.10213 -0.89286,-0.1064 -1.39041,-0.69132 -0.49182,-0.58943 -0.39276,-1.42071 0.12046,-1.01087 0.86945,-1.40041 0.75412,-0.38892 2.24221,-0.21159 l 1.08271,0.12902 0.0171,-0.14368 q 0.052,-0.43616 -0.26798,-0.67725 -0.31934,-0.24622 -1.04799,-0.33305 -0.5901,-0.0703 -1.11217,-0.0128 -0.52206,0.0575 -0.98636,0.24155 l 0.16694,-1.40085 q 0.60722,-0.0734 1.21102,-0.0743 0.60441,-0.006 1.19964,0.0649 1.5548,0.18528 2.16902,0.88298 0.61996,0.69318 0.45548,2.07351 z" />
      <path
         id="path960"
         style="font-style:normal;font-variant:normal;font-weight:bold;font-stretch:normal;font-size:10.58333302px;font-family:'.Beirut PUA';-inkscape-font-specification:'.Beirut PUA, Bold';font-variant-ligatures:normal;font-variant-caps:normal;font-variant-numeric:normal;font-feature-settings:normal;text-align:start;writing-mode:lr-tb;text-anchor:start;stroke-width:0.26458332"
         d="m 113.73799,229.30588 1.78183,0.49761 -2.16283,7.74452 -1.78183,-0.49762 z" />
      <path
         id="path962"
         style="font-style:normal;font-variant:normal;font-weight:bold;font-stretch:normal;font-size:10.58333302px;font-family:'.Beirut PUA';-inkscape-font-specification:'.Beirut PUA, Bold';font-variant-ligatures:normal;font-variant-caps:normal;font-variant-numeric:normal;font-feature-settings:normal;text-align:start;writing-mode:lr-tb;text-anchor:start;stroke-width:0.26458332"
         d="m 119.11389,234.49333 q -0.58528,-0.18871 -1.03151,0.13436 -0.43973,0.31974 -0.69504,1.11159 -0.25531,0.79185 -0.0867,1.31314 0.17507,0.51797 0.76035,0.70667 0.57544,0.18554 1.01517,-0.1342 0.44131,-0.32466 0.69662,-1.11651 0.25531,-0.79185 0.0852,-1.30822 -0.16856,-0.5213 -0.744,-0.70683 z m 0.40595,-1.25909 q 1.4214,0.45828 1.97079,1.48244 0.5543,1.02574 0.11663,2.38319 -0.43767,1.35746 -1.48674,1.86624 -1.04415,0.51036 -2.46554,0.0521 -1.42631,-0.45987 -1.98554,-1.4872 -0.5543,-1.02573 -0.11663,-2.38319 0.43767,-1.35746 1.48674,-1.86623 1.05398,-0.5072 2.48029,-0.0473 z" />
      <path
         id="path964"
         style="font-style:normal;font-variant:normal;font-weight:bold;font-stretch:normal;font-size:10.58333302px;font-family:'.Beirut PUA';-inkscape-font-specification:'.Beirut PUA, Bold';font-variant-ligatures:normal;font-variant-caps:normal;font-variant-numeric:normal;font-feature-settings:normal;text-align:start;writing-mode:lr-tb;text-anchor:start;stroke-width:0.26458332"
         d="m 123.34307,234.63714 1.73179,0.65075 -0.0573,4.25129 2.75174,-3.2388 1.73662,0.65258 -4.16917,4.61624 -1.9011,-0.71438 z" />
      <path
         id="path966"
         style="font-style:normal;font-variant:normal;font-weight:bold;font-stretch:normal;font-size:10.58333302px;font-family:'.Beirut PUA';-inkscape-font-specification:'.Beirut PUA, Bold';font-variant-ligatures:normal;font-variant-caps:normal;font-variant-numeric:normal;font-feature-settings:normal;text-align:start;writing-mode:lr-tb;text-anchor:start;stroke-width:0.26458332"
         d="m 134.89462,242.36341 -0.20653,0.48496 -3.97946,-1.69478 q -0.19332,0.62538 0.05,1.08284 0.24328,0.45747 0.9089,0.74094 0.53725,0.22881 1.1651,0.31084 0.63462,0.0793 1.36661,0.009 l -0.55885,1.31222 q -0.70101,-0.0289 -1.35341,-0.17199 -0.65444,-0.13829 -1.25825,-0.39544 -1.44535,-0.61555 -1.93702,-1.68993 -0.4849,-1.0771 0.08,-2.40359 0.5548,-1.30271 1.65718,-1.71506 1.10713,-0.41033 2.48592,0.17687 1.25517,0.53456 1.68442,1.61043 0.43401,1.07791 -0.1046,2.34258 z m -1.50867,-1.31091 q 0.20653,-0.48495 0.0468,-0.90122 -0.15294,-0.41899 -0.60937,-0.61337 -0.49446,-0.21059 -0.92296,-0.0617 -0.42648,0.14415 -0.72528,0.63474 z" />
      <path
         id="path968"
         style="font-style:normal;font-variant:normal;font-weight:bold;font-stretch:normal;font-size:10.58333302px;font-family:'.Beirut PUA';-inkscape-font-specification:'.Beirut PUA, Bold';font-variant-ligatures:normal;font-variant-caps:normal;font-variant-numeric:normal;font-feature-settings:normal;text-align:start;writing-mode:lr-tb;text-anchor:start;stroke-width:0.26458332"
         d="m 138.39419,238.34157 1.67887,0.77717 -3.37785,7.29695 -1.67886,-0.77717 z" />
      <path
         id="path970"
         style="font-style:normal;font-variant:normal;font-weight:bold;font-stretch:normal;font-size:10.58333302px;font-family:'.Beirut PUA';-inkscape-font-specification:'.Beirut PUA, Bold';font-variant-ligatures:normal;font-variant-caps:normal;font-variant-numeric:normal;font-feature-settings:normal;text-align:start;writing-mode:lr-tb;text-anchor:start;stroke-width:0.26458332"
         d="m 140.21604,241.64999 1.65621,0.82434 -0.35748,4.20906 2.93432,-2.9265 1.65621,0.82434 -5.00199,4.58729 q -0.75905,0.70162 -1.36894,0.82522 -0.60757,0.13053 -1.32465,-0.22638 l -0.95764,-0.47664 0.54112,-1.08718 0.51814,0.2579 q 0.42099,0.20953 0.67745,0.16978 0.26108,-0.0375 0.54018,-0.33146 l 0.11764,-0.12039 z" />
      <path
         id="path972"
         style="font-style:normal;font-variant:normal;font-weight:bold;font-stretch:normal;font-size:10.58333302px;font-family:'.Beirut PUA';-inkscape-font-specification:'.Beirut PUA, Bold';font-variant-ligatures:normal;font-variant-caps:normal;font-variant-numeric:normal;font-feature-settings:normal;text-align:start;writing-mode:lr-tb;text-anchor:start;stroke-width:0.26458332"
         d="m 149.74709,252.19964 -1.50011,2.64247 -1.60885,-0.91333 3.94416,-6.9477 1.60885,0.91333 -0.4184,0.73701 q 0.58258,-0.25162 1.10439,-0.22874 0.52436,0.0184 1.05016,0.31689 0.93026,0.52809 1.10701,1.60891 0.1793,1.07633 -0.48146,2.24027 -0.66076,1.16394 -1.67941,1.56614 -1.0161,0.3977 -1.94635,-0.1304 -0.5258,-0.29849 -0.8129,-0.73482 -0.28456,-0.44083 -0.36709,-1.07003 z m 2.91919,-2.65095 q -0.51681,-0.29339 -1.01229,-0.0696 -0.48843,0.22187 -0.89407,0.93641 -0.40565,0.71455 -0.34837,1.25216 0.0643,0.53567 0.58114,0.82906 0.51681,0.29338 1.00075,0.069 0.48843,-0.22187 0.89662,-0.94091 0.4082,-0.71904 0.34836,-1.25215 -0.0553,-0.53057 -0.57214,-0.82396 z" />
      <path
         id="path974"
         style="font-style:normal;font-variant:normal;font-weight:bold;font-stretch:normal;font-size:10.58333302px;font-family:'.Beirut PUA';-inkscape-font-specification:'.Beirut PUA, Bold';font-variant-ligatures:normal;font-variant-caps:normal;font-variant-numeric:normal;font-feature-settings:normal;text-align:start;writing-mode:lr-tb;text-anchor:start;stroke-width:0.26458332"
         d="m 160.75185,256.33564 -0.27585,0.44915 -3.68572,-2.26359 q -0.28351,0.59 -0.11042,1.07836 0.1731,0.48837 0.78959,0.86698 0.49759,0.3056 1.10645,0.47941 0.61596,0.1721 1.3503,0.21072 l -0.74642,1.21536 q -0.68905,-0.13209 -1.3132,-0.36987 -0.62686,-0.23337 -1.1861,-0.57683 -1.33866,-0.82214 -1.66637,-1.95733 -0.3206,-1.13688 0.43393,-2.36545 0.74101,-1.20656 1.89218,-1.45168 1.15557,-0.24241 2.43258,0.54187 1.16252,0.71396 1.42827,1.84141 0.27015,1.13016 -0.44922,2.30149 z m -1.29866,-1.51924 q 0.27585,-0.44916 0.17931,-0.88444 -0.0894,-0.43698 -0.51216,-0.6966 -0.45796,-0.28126 -0.90375,-0.19724 -0.44308,0.0796 -0.81102,0.52073 z" />
      <path
         id="path976"
         style="font-style:normal;font-variant:normal;font-weight:bold;font-stretch:normal;font-size:10.58333302px;font-family:'.Beirut PUA';-inkscape-font-specification:'.Beirut PUA, Bold';font-variant-ligatures:normal;font-variant-caps:normal;font-variant-numeric:normal;font-feature-settings:normal;text-align:start;writing-mode:lr-tb;text-anchor:start;stroke-width:0.26458332"
         d="m 166.30109,258.405 q -0.14111,-0.22804 -0.31615,-0.40417 -0.16789,-0.17763 -0.3712,-0.31051 -0.59695,-0.39014 -1.17299,-0.21718 -0.56889,0.17146 -1.03536,0.88521 l -1.45879,2.23208 -1.54861,-1.0121 3.16635,-4.84483 1.54861,1.0121 -0.52018,0.79594 q 0.60946,-0.28076 1.1358,-0.24544 0.5335,0.0338 1.07422,0.38721 0.0779,0.0509 0.16305,0.11891 0.088,0.0637 0.24691,0.19841 z" />
      <path
         id="path978"
         style="font-style:normal;font-variant:normal;font-weight:bold;font-stretch:normal;font-size:10.58333302px;font-family:'.Beirut PUA';-inkscape-font-specification:'.Beirut PUA, Bold';font-variant-ligatures:normal;font-variant-caps:normal;font-variant-numeric:normal;font-feature-settings:normal;text-align:start;writing-mode:lr-tb;text-anchor:start;stroke-width:0.26458332"
         d="m 171.6759,260.41314 -0.79941,1.15614 q -0.34773,-0.54201 -0.732,-0.9585 -0.38427,-0.41648 -0.78807,-0.69569 -0.43355,-0.29977 -0.72249,-0.33621 -0.28175,-0.0378 -0.43752,0.18753 -0.12638,0.18277 -0.0367,0.38928 0.0939,0.20944 0.47389,0.54128 l 0.24133,0.22341 q 1.06603,0.95699 1.2347,1.57624 0.16868,0.61924 -0.33388,1.34608 -0.52608,0.76084 -1.35166,0.75544 -0.82558,-0.005 -1.93921,-0.77542 -0.47181,-0.32623 -0.92472,-0.75248 -0.4516,-0.41906 -0.88004,-0.9352 l 0.7994,-1.15614 q 0.30198,0.5355 0.70162,0.97518 0.4039,0.44262 0.89696,0.78354 0.4463,0.3086 0.75681,0.3411 0.31051,0.0325 0.47803,-0.20978 0.14107,-0.20402 0.0514,-0.41053 -0.0825,-0.20781 -0.50758,-0.58342 l -0.24427,-0.21916 q -0.92771,-0.82993 -1.0977,-1.45637 -0.16999,-0.62643 0.31495,-1.32777 0.52314,-0.75659 1.29445,-0.76358 0.77132,-0.007 1.84245,0.73364 0.4208,0.29096 0.84002,0.67507 0.41922,0.38411 0.86924,0.89632 z" />
      <path
         id="path980"
         style="font-style:normal;font-variant:normal;font-weight:bold;font-stretch:normal;font-size:10.58333302px;font-family:'.Beirut PUA';-inkscape-font-specification:'.Beirut PUA, Bold';font-variant-ligatures:normal;font-variant-caps:normal;font-variant-numeric:normal;font-feature-settings:normal;text-align:start;writing-mode:lr-tb;text-anchor:start;stroke-width:0.26458332"
         d="m 174.91026,264.00196 q -0.49428,-0.36586 -1.02036,-0.20235 -0.51885,0.16244 -1.01384,0.83116 -0.49499,0.66873 -0.50188,1.21655 3.5e-4,0.54675 0.49462,0.91261 0.48597,0.35971 1.00482,0.19728 0.52193,-0.16659 1.01692,-0.83531 0.49499,-0.66873 0.4988,-1.2124 0.007,-0.54782 -0.47908,-0.90754 z m 0.78706,-1.06331 q 1.20038,0.88853 1.39364,2.03455 0.19741,1.14909 -0.65114,2.29548 -0.84856,1.14638 -2.00521,1.2932 -1.1525,0.14989 -2.35288,-0.73864 -1.20453,-0.8916 -1.4061,-2.04377 -0.19741,-1.1491 0.65115,-2.29548 0.84856,-1.14638 2.00521,-1.2932 1.1608,-0.14374 2.36533,0.74786 z" />
      <path
         id="path982"
         style="font-style:normal;font-variant:normal;font-weight:bold;font-stretch:normal;font-size:10.58333302px;font-family:'.Beirut PUA';-inkscape-font-specification:'.Beirut PUA, Bold';font-variant-ligatures:normal;font-variant-caps:normal;font-variant-numeric:normal;font-feature-settings:normal;text-align:start;writing-mode:lr-tb;text-anchor:start;stroke-width:0.26458332"
         d="m 182.53642,271.33405 -2.2162,2.74033 -1.4465,-1.16984 0.3607,-0.44601 1.33557,-1.65143 q 0.47118,-0.58262 0.62178,-0.82636 0.15462,-0.24049 0.17482,-0.39695 0.0294,-0.20887 -0.0536,-0.4022 -0.0797,-0.19735 -0.26449,-0.34683 -0.45003,-0.36395 -0.9899,-0.22235 -0.53661,0.13758 -1.0338,0.75235 l -1.79051,2.21395 -1.43847,-1.16334 3.63951,-4.50024 1.43847,1.16335 -0.53292,0.65896 q 0.64392,-0.13056 1.15904,-0.0197 0.51837,0.10686 0.96036,0.46432 0.77951,0.63041 0.79462,1.43352 0.0191,0.80635 -0.71853,1.71845 z" />
    </g>
  </g>
</svg>
