/* XPM */
static char * robocut_xpm[] = {
"32 32 2 1",
" 	c None",
".	c #484848",
"                                ",
"                                ",
"                                ",
"                                ",
"      ...............           ",
"      .            . .          ",
"      .            .  .         ",
"      .            .   .        ",
"      .            .    .       ",
"      .            .......      ",
"      .                  .      ",
"      .                  .      ",
"      .                  .      ",
"      .                  .      ",
"      .                  .      ",
"      .                  .      ",
"      .                  .      ",
"      .                  .      ",
"      .                  .      ",
" .............................. ",
" ..  .......................... ",
" ..  .......................... ",
" ..  .......................... ",
" .............................. ",
" .............................. ",
" .............................. ",
" .............................. ",
" .............................. ",
"                                ",
"                                ",
"                                ",
"                                "};
