/* XPM */
static char *icon[] = {
/* columns rows colors chars-per-pixel */
"64 64 66 1",
"  c #000000",
". c #1D2270",
"X c #282C77",
"o c #2E327B",
"O c #474747",
"+ c #5F5F5F",
"@ c #F70007",
"# c #F70008",
"$ c #F7000B",
"% c #FB0009",
"& c #F9000A",
"* c #F9000B",
"= c #FA000B",
"- c #FB000B",
"; c #FD0009",
": c #FC000A",
"> c #FD000A",
", c #FC000B",
"< c #FD000B",
"1 c #F8000C",
"2 c #F9000C",
"3 c #FA000C",
"4 c #FB000C",
"5 c #FD000C",
"6 c #FC000D",
"7 c #FD000D",
"8 c #FE010C",
"9 c #FE010D",
"0 c #FF010D",
"q c #FD020D",
"w c #FD000E",
"e c #FC0913",
"r c #FB1622",
"t c #F8232E",
"y c #404385",
"u c #484C8B",
"i c #494D8C",
"p c #5B5F97",
"a c #64679D",
"s c #6B6EA1",
"d c #7174A5",
"f c #797CAA",
"g c #7B7FAB",
"h c #4E7FD0",
"j c #5784D0",
"k c #6189D3",
"l c #628CD4",
"z c #6C8FD5",
"x c #7197DA",
"c c #7696DC",
"v c #769DD9",
"b c #8083AF",
"n c #8284AF",
"m c #8386B0",
"M c #8E90B7",
"N c #9698BC",
"B c #80A0DC",
"V c #A4A6C5",
"C c #A5A7C6",
"Z c #ABADCA",
"A c #B2B4CE",
"S c #B8BAD1",
"D c #FAFAFC",
"F c #FEFEFE",
"G c #FFFFFF",
"H c None",
/* pixels */
"HHHHHHHHHHHHHHHHHHHHHHHHHHHHHHHHHHHHHHHHHHHHHHHHHHHHHHHHHHHHHHHH",
"HHHHHHHHHHHHHHHHHHHHHHHHHHHHHHHHHHHHHHHHHHHHHHHHHHHHHHHHHHHHHHHH",
"HHHHHHHHHHHHHHHHHHHHHHHHHHHHHHHHHHHHHHHHHHHHHHHHHHHHHHHHHHHHHHHH",
"HHHHHHHHHHHHHHHHHHHHHHHHHHHHHHHHHHHHHHHHHHHHHHHHHHHHHHHHHHHHHHHH",
"HHHHHHHHHHHHHHHHHHHHHHHHHHHHHHHHHHHHHHHHHHHHHHHHHHHHHHHHHHHHHHHH",
"HHHHHHHHHHHyyySGfyCGMynGAyyyyyyyyyyyyyyyyHHHHHHHHHHHHHHHHHHHHHHH",
"HHHHHHHHHHH...ZGa.NGf.sGV................HHHHHHHHHHHHHHHHHHHHHHH",
"HHHHHHHHHHH...ZGa.NGf.sGV................HHHHHHHHHHHHHHHHHHHHHHH",
"HHHHHHHHHHH...ZGa.NGf.sGV................HHHHHHHHHHHHHHHHHHHHHHH",
"HHHHHHHHHHH...ZGa.NGf.sGV................HHHHHHHHHHHHHHHHHHHHHHH",
"HHHHHHHHHHH...ZGa.NGf.sGV................HHHHHHHHHHHHHHHHHHHHHHH",
"HHHHHHHHHHH...ZGa.NGf.sGV................HHHHHHHHHHHHHHHHHHHHHHH",
"HHHHHHHHHHH...ZGa.NGf.sGV................HHHHHHHHHHHHHHHHHHHHHHH",
"HHHHHHHHHHH...ZGa.NGf.sGV................HHHHHHHHHHHHHHHHHHHHHHH",
"HHHHHHHHHHH...ZGa.NGf.sGV................HHHHHHHHHHHHHHHHHHHHHHH",
"HHHHHHHHHHH...ZGa.NGf.sGV................HHHHHHHHHHHHHHHHHHHHHHH",
"HHHHHHHHHHH...ZGa.NGf.sGV................HHHHHHHHHHHHHHHHHHHHHHH",
"HHHHHHHHHHH...ZGa.NGf.sGV................HHHHHHHHHHHHHHHHHHHHHHH",
"HHHHHHHHHHH...ZGa.NGf.sGV................HHHHHHHHHHHHHHHHHHHHHHH",
"HHHHHHHHHHH...ZGa.NGf.sGV................HHHHHHHHHHHHHHHHHHHHHHH",
"HHHHHHHHHHH...ZGa.NGf.sGV................HHHHHHHHHHHHHHHHHHHHHHH",
"HHHHHHHHHHH...ZGa.NGf.sGV................HHHHHHHHHHHHHHHHHHHHHHH",
"HHHHHHHHHHH...ZGa.NGf.sGV................HHHHHHHHHHHHHHHHHHHHHHH",
"HHHHHHHHHHH...ZGa.NGf.sGV................HHHHHHHHHHHHHHHHHHHHHHH",
"HHHHHHHHHHH...ZGa.NGf.sGV................HHHHHHHHHHHHHHHHHHHHHHH",
"HHHHHHHHHHH...ZGa.NGf.sGV................HHHHHHHHHHHHHHHHHHHHHHH",
"HHHHHHHHHHH...mDu.dGp.uGb................HHHHHHHHHHHHHHHHHHHHHHH",
"HHHHHHHHHHH....X...o...X.................HHHHHHHHHHHHHHHHHHHHHHH",
"HHHHHHHHHHH..............................HHHHHHHHHHHHHHHHHHHHHHH",
"HHHHHHHHHHH..............................HHHHHHHHHHHHHHHHHHHHHHH",
"HHHHHHHHHHHHHHHHHHHHHHHHHHHHHHHHHHHHHHHHHHHHHHHHHHHHHHHHHHHHHHHH",
"HHHHHHHHHHHHHHHHOOOOOOOOOOOOOOOOOOOOOHHHHHHHHHHHHHHHHHHHHHHHHHHH",
"HHHHHHHHHHHHHHHH                     HHHHHHHHHHHHHHHHHHHHHHHHHHH",
"HHHHHHHHHHHHHHHH                     HHHHHHHHHHHHHHHHHHHHHHHHHHH",
"HHHHHHHHHHHHHHHH                     HHHHHHHHHHHHHHHHHHHHHHHHHHH",
"HHHHHHHHHHHHHHHH                     HHHHHHHHHHHHHHHHHHHHHHHHHHH",
"HHHHHHHHHHHHHHHH                     HHHHHHHHHHHHHHHHHHHHHHHHHHH",
"HHHHHHHHHHHHHHHH                     HHHHHHHHHHHHHHHHHHHHHHHHHHH",
"HHHHHHHHHHHHHHHH                     HHHHHHHHHHHHHHHHHHHHHHHHHHH",
"HHHHHHHHHHHHHHHH                     HHHHHHHHHHHHHHHHHHHHHHHHHHH",
"HHHHHHHHHHHHHHHH                     HHHHHHHHHHHHHHHHHHHHHHHHHHH",
"HHHHHHHHHHHHHHHH                     HHHHHHHHHHHHHHHHHHHHHHHHHHH",
"HHHHHHHHHHHHHHHH                     HHHHHHHHHHHHHHHHHHHHHHHHHHH",
"HHHHHHHHHHHHHHHH                     HHHHHHHHHHHHHHHHHHHHHHHHHHH",
"HHHHHHHHHHHHHHHH                     HHHHHHHHHHHHHHHHHHHHHHHHHHH",
"HHHHHHHHHHHHHHHH                     HHHHHHHHHHHHHHHHHHHHHHHHHHH",
"HHHHHHHHHHHHHHHH                     HHHHHHHHHHHHHHHHHHHHHHHHHHH",
"HHHHHHHHHHHHHHHH                     HHHHHHHHHHHHHHHHHHHHHHHHHHH",
"HHHHHHHHHHHHHHHH                     HHHHHHHHHHHHHHHHHHHHHHHHHHH",
"HHHHHHHHHHHHHHHH                     HHHHHHHHHHHHHHHHHHHHHHHHHHH",
"HHHHHHHHHHHHHHHH                     HHHHHHHHHHHHHHHHHHHHHHHHHHH",
"HHHHHHHHHHHHHHHH++++++++++++++++++++HHHHHHHHHHHHHHHHHHHHHHHHHHHH",
"HHHHHHHHHHHHHHHHHHHHHHHHcccccccHHHHHHHHHHHHHHHHHHHHHHHHHHHHHHHHH",
"HHHHHHHHHHHHHHHHHHHHHHHHBhhhhhhHHHHHHHHHHHHHHHHHHHHHHHHHHHHHHHHH",
"HHHHHHHHHHHHHHHHHHHHHHHHHvhhhhhHHHHHHHHHHHHHHHHHHHHHHHHHHHHHHHHH",
"HHHHHHHHHHHHHHHHHHHHHHHHHHxhhhhHHHHHHHHHHHHHHHHHHHHHHHH%,33338HH",
"HHHHHHHHHHHHHHHHHHHHHHHHHHHzhhhHHHHHHHHHHHHHHHHHHH,%3333,,8HHHHH",
"HHHHHHHHHHHHHHHHHHHHHHHHHHHHlhhHHHHHHHHHHHHHHHHH83338HHHHHHHHHHH",
"HHHHHHHHHHHHHHHHHHHHHHHHHHHHHkhHHHHHHHHHHHHHHH%318HHHHHHHHHHHHHH",
"HHHHHHHHHHHHHHHHHHHHHHHHHHHHHHjHHHHHHHHHHHHH$3$HHHHHHHHHHHHHHHHH",
"HHHHHHHHHHHHHHHHHHHHHHHHHHHHHHH8et8HHHHHHHr83HHHHHHHHHHHHHHHHHHH",
"HHHHHHHHHHHHHHHHHHHHHHHHHHHHHHH833888883$33%HHHHHHHHHHHHHHHHHHHH",
"HHHHHHHHHHHHHHHHHHHHHHHHHHHHHHHHHHHHH888,HHHHHHHHHHHHHHHHHHHHHHH",
"HHHHHHHHHHHHHHHHHHHHHHHHHHHHHHHHHHHHHHHHHHHHHHHHHHHHHHHHHHHHHHHH"
};
