/* XPM */
static char * robocut_xpm[] = {
"32 32 8 1",
" 	c None",
".	c #FF0000",
"+	c #0004FF",
"@	c #F7FF00",
"#	c #000000",
"$	c #FFFFFF",
"%	c #FFA165",
"&	c #787878",
"                                ",
"                                ",
"                                ",
"                                ",
"   .....   +++++   @@@@@     #  ",
"    ...     +++     @@@     #   ",
"     .       +       @     #    ",
"                          #     ",
"                                ",
"                                ",
"                                ",
"                                ",
"                                ",
"                                ",
"                                ",
"                                ",
"                                ",
" $$$$$$$$$$$$$$$$$$$$$$######## ",
" $$$$$$$$$$$$$$$$$$$$$$######## ",
" $$$$$$$$$$$$$$$$$$$$$$######## ",
" $$$$$$$$$$$$$$$$$$$$$$######## ",
" $$$$$$$%$$%$%$%$$$$$$$######## ",
" $$$$$$%$%$$%$$%$$$$$$$######## ",
" $$$$$$$$$$$$$$$$$$$$$$######## ",
" &&&&&&&&&&&&&&&&&&&&&&######## ",
" &&&&&&&&&&&&&&&&&&&&&&######## ",
" &&&&&&&&&&&&&&&&&&&&&&######## ",
" &&&&&&&&&&&&&&&&&&&&&&######## ",
" &&&&&&&&&&&&&&&&&&&&&&######## ",
" &&&&&&&&&&&&&&&&&&&&&&######## ",
"                                ",
"                                "};
